<svg width="25" height="27" viewBox="0 0 25 27" fill="none" xmlns="http://www.w3.org/2000/svg">
<mask id="path-1-outside-1" maskUnits="userSpaceOnUse" x="0.00012207" y="0.912842" width="25" height="26" fill="black">
<rect fill="white" x="0.00012207" y="0.912842" width="25" height="26"/>
<path d="M23.8885 8.07842C23.8276 8.00702 23.7466 7.95611 23.6562 7.9325C23.5659 7.90889 23.4706 7.91372 23.383 7.94634L22.1182 8.4138L23.2069 6.38445C23.2356 6.33086 23.2536 6.27209 23.2598 6.21149C23.266 6.1509 23.2603 6.08966 23.243 6.03129C23.2258 5.97291 23.1973 5.91854 23.1592 5.87127C23.1212 5.824 23.0742 5.78476 23.0211 5.7558C22.968 5.72684 22.9098 5.70871 22.8498 5.70246C22.7897 5.69621 22.7291 5.70196 22.6712 5.71937C22.6134 5.73679 22.5595 5.76553 22.5127 5.80396C22.4658 5.84238 22.427 5.88975 22.3983 5.94334L21.3099 7.97268L21.0062 6.64823C20.9852 6.55651 20.937 6.47342 20.868 6.41003C20.799 6.34663 20.7126 6.30592 20.6201 6.29332C20.5277 6.28072 20.4336 6.29681 20.3504 6.33946C20.2673 6.38212 20.1989 6.44931 20.1545 6.53211L17.7785 10.9614C17.7253 11.0608 17.7099 11.1764 17.7351 11.2864L18.2714 13.6341L15.9924 17.8898C15.9447 17.9967 15.9388 18.1178 15.976 18.2289C16.0132 18.3399 16.0907 18.4326 16.1929 18.4884C16.2951 18.5441 16.4144 18.5586 16.5269 18.5292C16.6393 18.4997 16.7365 18.4283 16.7989 18.3294L19.0801 14.0756L21.3223 13.2468C21.4277 13.2079 21.5153 13.1315 21.5686 13.032L23.9447 8.60226C23.9891 8.5195 24.0075 8.42506 23.9974 8.3315C23.9874 8.23793 23.9494 8.14966 23.8885 8.07842ZM18.6688 11.2482L20.3839 8.05096L20.6486 9.20439L18.9331 12.402L18.6688 11.2482ZM20.843 12.4354L19.7403 12.8435L21.4558 9.6455L22.5585 9.23741L20.843 12.4354Z"/>
<path d="M6.46572 2.84033H13.8655V19.4424C13.8655 19.5654 13.914 19.6833 14.0001 19.7703C14.0863 19.8573 14.2032 19.9061 14.325 19.9061C14.4469 19.9061 14.5638 19.8573 14.6499 19.7703C14.7361 19.6833 14.7845 19.5654 14.7845 19.4424V2.37659C14.7845 2.25359 14.7361 2.13564 14.6499 2.04867C14.5638 1.9617 14.4469 1.91284 14.325 1.91284H6.46572C6.34386 1.91284 6.22699 1.9617 6.14082 2.04867C6.05465 2.13564 6.00624 2.25359 6.00624 2.37659C6.00624 2.49958 6.05465 2.61753 6.14082 2.7045C6.22699 2.79147 6.34386 2.84033 6.46572 2.84033Z"/>
<path d="M17.3576 21.149H4.40027C4.27841 21.149 4.16154 21.1978 4.07537 21.2848C3.9892 21.3718 3.94079 21.4897 3.94079 21.6127V23.1523C3.94008 23.409 3.84334 23.6559 3.66994 23.8436C3.49654 24.0314 3.25928 24.1461 3.00566 24.1648C2.71188 24.1459 2.4362 24.015 2.23446 23.7986C2.03271 23.5823 1.91998 23.2966 1.91908 22.9995V5.62948L4.03269 3.49625V4.97356H3.40265C3.28079 4.97356 3.16392 5.02241 3.07775 5.10938C2.99158 5.19635 2.94317 5.31431 2.94317 5.4373C2.94317 5.56029 2.99158 5.67825 3.07775 5.76522C3.16392 5.85219 3.28079 5.90105 3.40265 5.90105H4.49217C4.61403 5.90105 4.7309 5.85219 4.81707 5.76522C4.90324 5.67825 4.95165 5.56029 4.95165 5.4373V2.37659C4.95124 2.28504 4.92405 2.19566 4.87347 2.11967C4.8229 2.04367 4.7512 1.98446 4.66739 1.94946C4.58358 1.91446 4.49139 1.90523 4.4024 1.92294C4.31342 1.94065 4.2316 1.98451 4.16722 2.049L1.13466 5.10934C1.04853 5.19635 1.00014 5.31431 1.00012 5.4373V22.9995C1.00081 23.521 1.19347 24.0237 1.5407 24.4099C1.88794 24.7962 2.36497 25.0384 2.87921 25.0897C2.89589 25.0942 2.91283 25.0976 2.92994 25.1001H15.7149C16.2722 25.0995 16.8066 24.8758 17.2007 24.478C17.5948 24.0802 17.8165 23.5409 17.8171 22.9783V21.6146C17.8173 21.5535 17.8056 21.493 17.7826 21.4365C17.7596 21.38 17.7258 21.3287 17.6831 21.2854C17.6405 21.2422 17.5897 21.2079 17.5339 21.1844C17.478 21.161 17.4181 21.149 17.3576 21.149ZM16.8981 22.9769C16.8977 23.2935 16.7729 23.597 16.5511 23.8209C16.3293 24.0448 16.0286 24.1707 15.7149 24.1711H4.5734C4.76085 23.865 4.86001 23.5122 4.85975 23.1523V22.0765H16.8981V22.9769Z"/>
<path d="M11.5568 7.70965H4.22971C4.10785 7.70965 3.99098 7.75851 3.90481 7.84548C3.81864 7.93244 3.77023 8.0504 3.77023 8.17339C3.77023 8.29639 3.81864 8.41434 3.90481 8.50131C3.99098 8.58828 4.10785 8.63714 4.22971 8.63714H11.5568C11.6786 8.63714 11.7955 8.58828 11.8817 8.50131C11.9678 8.41434 12.0162 8.29639 12.0162 8.17339C12.0162 8.0504 11.9678 7.93244 11.8817 7.84548C11.7955 7.75851 11.6786 7.70965 11.5568 7.70965Z"/>
<path d="M11.5568 10.9559H11.2443C11.1224 10.9559 11.0056 11.0047 10.9194 11.0917C10.8332 11.1787 10.7848 11.2966 10.7848 11.4196C10.7848 11.5426 10.8332 11.6606 10.9194 11.7475C11.0056 11.8345 11.1224 11.8833 11.2443 11.8833H11.5568C11.6786 11.8833 11.7955 11.8345 11.8817 11.7475C11.9678 11.6606 12.0162 11.5426 12.0162 11.4196C12.0162 11.2966 11.9678 11.1787 11.8817 11.0917C11.7955 11.0047 11.6786 10.9559 11.5568 10.9559Z"/>
<path d="M4.22971 11.8833H9.49829C9.62015 11.8833 9.73702 11.8345 9.82319 11.7475C9.90936 11.6606 9.95777 11.5426 9.95777 11.4196C9.95777 11.2966 9.90936 11.1787 9.82319 11.0917C9.73702 11.0047 9.62015 10.9559 9.49829 10.9559H4.22971C4.10785 10.9559 3.99098 11.0047 3.90481 11.0917C3.81864 11.1787 3.77023 11.2966 3.77023 11.4196C3.77023 11.5426 3.81864 11.6606 3.90481 11.7475C3.99098 11.8345 4.10785 11.8833 4.22971 11.8833Z"/>
<path d="M11.5568 14.2021H4.22971C4.10785 14.2021 3.99098 14.2509 3.90481 14.3379C3.81864 14.4249 3.77023 14.5428 3.77023 14.6658C3.77023 14.7888 3.81864 14.9068 3.90481 14.9937C3.99098 15.0807 4.10785 15.1296 4.22971 15.1296H11.5568C11.6786 15.1296 11.7955 15.0807 11.8817 14.9937C11.9678 14.9068 12.0162 14.7888 12.0162 14.6658C12.0162 14.5428 11.9678 14.4249 11.8817 14.3379C11.7955 14.2509 11.6786 14.2021 11.5568 14.2021Z"/>
<path d="M11.5568 17.4483H4.22971C4.10785 17.4483 3.99098 17.4971 3.90481 17.5841C3.81864 17.6711 3.77023 17.789 3.77023 17.912C3.77023 18.035 3.81864 18.153 3.90481 18.2399C3.99098 18.3269 4.10785 18.3758 4.22971 18.3758H11.5568C11.6786 18.3758 11.7955 18.3269 11.8817 18.2399C11.9678 18.153 12.0162 18.035 12.0162 17.912C12.0162 17.789 11.9678 17.6711 11.8817 17.5841C11.7955 17.4971 11.6786 17.4483 11.5568 17.4483Z"/>
</mask>
<path d="M23.8885 8.07842C23.8276 8.00702 23.7466 7.95611 23.6562 7.9325C23.5659 7.90889 23.4706 7.91372 23.383 7.94634L22.1182 8.4138L23.2069 6.38445C23.2356 6.33086 23.2536 6.27209 23.2598 6.21149C23.266 6.1509 23.2603 6.08966 23.243 6.03129C23.2258 5.97291 23.1973 5.91854 23.1592 5.87127C23.1212 5.824 23.0742 5.78476 23.0211 5.7558C22.968 5.72684 22.9098 5.70871 22.8498 5.70246C22.7897 5.69621 22.7291 5.70196 22.6712 5.71937C22.6134 5.73679 22.5595 5.76553 22.5127 5.80396C22.4658 5.84238 22.427 5.88975 22.3983 5.94334L21.3099 7.97268L21.0062 6.64823C20.9852 6.55651 20.937 6.47342 20.868 6.41003C20.799 6.34663 20.7126 6.30592 20.6201 6.29332C20.5277 6.28072 20.4336 6.29681 20.3504 6.33946C20.2673 6.38212 20.1989 6.44931 20.1545 6.53211L17.7785 10.9614C17.7253 11.0608 17.7099 11.1764 17.7351 11.2864L18.2714 13.6341L15.9924 17.8898C15.9447 17.9967 15.9388 18.1178 15.976 18.2289C16.0132 18.3399 16.0907 18.4326 16.1929 18.4884C16.2951 18.5441 16.4144 18.5586 16.5269 18.5292C16.6393 18.4997 16.7365 18.4283 16.7989 18.3294L19.0801 14.0756L21.3223 13.2468C21.4277 13.2079 21.5153 13.1315 21.5686 13.032L23.9447 8.60226C23.9891 8.5195 24.0075 8.42506 23.9974 8.3315C23.9874 8.23793 23.9494 8.14966 23.8885 8.07842ZM18.6688 11.2482L20.3839 8.05096L20.6486 9.20439L18.9331 12.402L18.6688 11.2482ZM20.843 12.4354L19.7403 12.8435L21.4558 9.6455L22.5585 9.23741L20.843 12.4354Z" fill="black"/>
<path d="M6.46572 2.84033H13.8655V19.4424C13.8655 19.5654 13.914 19.6833 14.0001 19.7703C14.0863 19.8573 14.2032 19.9061 14.325 19.9061C14.4469 19.9061 14.5638 19.8573 14.6499 19.7703C14.7361 19.6833 14.7845 19.5654 14.7845 19.4424V2.37659C14.7845 2.25359 14.7361 2.13564 14.6499 2.04867C14.5638 1.9617 14.4469 1.91284 14.325 1.91284H6.46572C6.34386 1.91284 6.22699 1.9617 6.14082 2.04867C6.05465 2.13564 6.00624 2.25359 6.00624 2.37659C6.00624 2.49958 6.05465 2.61753 6.14082 2.7045C6.22699 2.79147 6.34386 2.84033 6.46572 2.84033Z" fill="black"/>
<path d="M17.3576 21.149H4.40027C4.27841 21.149 4.16154 21.1978 4.07537 21.2848C3.9892 21.3718 3.94079 21.4897 3.94079 21.6127V23.1523C3.94008 23.409 3.84334 23.6559 3.66994 23.8436C3.49654 24.0314 3.25928 24.1461 3.00566 24.1648C2.71188 24.1459 2.4362 24.015 2.23446 23.7986C2.03271 23.5823 1.91998 23.2966 1.91908 22.9995V5.62948L4.03269 3.49625V4.97356H3.40265C3.28079 4.97356 3.16392 5.02241 3.07775 5.10938C2.99158 5.19635 2.94317 5.31431 2.94317 5.4373C2.94317 5.56029 2.99158 5.67825 3.07775 5.76522C3.16392 5.85219 3.28079 5.90105 3.40265 5.90105H4.49217C4.61403 5.90105 4.7309 5.85219 4.81707 5.76522C4.90324 5.67825 4.95165 5.56029 4.95165 5.4373V2.37659C4.95124 2.28504 4.92405 2.19566 4.87347 2.11967C4.8229 2.04367 4.7512 1.98446 4.66739 1.94946C4.58358 1.91446 4.49139 1.90523 4.4024 1.92294C4.31342 1.94065 4.2316 1.98451 4.16722 2.049L1.13466 5.10934C1.04853 5.19635 1.00014 5.31431 1.00012 5.4373V22.9995C1.00081 23.521 1.19347 24.0237 1.5407 24.4099C1.88794 24.7962 2.36497 25.0384 2.87921 25.0897C2.89589 25.0942 2.91283 25.0976 2.92994 25.1001H15.7149C16.2722 25.0995 16.8066 24.8758 17.2007 24.478C17.5948 24.0802 17.8165 23.5409 17.8171 22.9783V21.6146C17.8173 21.5535 17.8056 21.493 17.7826 21.4365C17.7596 21.38 17.7258 21.3287 17.6831 21.2854C17.6405 21.2422 17.5897 21.2079 17.5339 21.1844C17.478 21.161 17.4181 21.149 17.3576 21.149ZM16.8981 22.9769C16.8977 23.2935 16.7729 23.597 16.5511 23.8209C16.3293 24.0448 16.0286 24.1707 15.7149 24.1711H4.5734C4.76085 23.865 4.86001 23.5122 4.85975 23.1523V22.0765H16.8981V22.9769Z" fill="black"/>
<path d="M11.5568 7.70965H4.22971C4.10785 7.70965 3.99098 7.75851 3.90481 7.84548C3.81864 7.93244 3.77023 8.0504 3.77023 8.17339C3.77023 8.29639 3.81864 8.41434 3.90481 8.50131C3.99098 8.58828 4.10785 8.63714 4.22971 8.63714H11.5568C11.6786 8.63714 11.7955 8.58828 11.8817 8.50131C11.9678 8.41434 12.0162 8.29639 12.0162 8.17339C12.0162 8.0504 11.9678 7.93244 11.8817 7.84548C11.7955 7.75851 11.6786 7.70965 11.5568 7.70965Z" fill="black"/>
<path d="M11.5568 10.9559H11.2443C11.1224 10.9559 11.0056 11.0047 10.9194 11.0917C10.8332 11.1787 10.7848 11.2966 10.7848 11.4196C10.7848 11.5426 10.8332 11.6606 10.9194 11.7475C11.0056 11.8345 11.1224 11.8833 11.2443 11.8833H11.5568C11.6786 11.8833 11.7955 11.8345 11.8817 11.7475C11.9678 11.6606 12.0162 11.5426 12.0162 11.4196C12.0162 11.2966 11.9678 11.1787 11.8817 11.0917C11.7955 11.0047 11.6786 10.9559 11.5568 10.9559Z" fill="black"/>
<path d="M4.22971 11.8833H9.49829C9.62015 11.8833 9.73702 11.8345 9.82319 11.7475C9.90936 11.6606 9.95777 11.5426 9.95777 11.4196C9.95777 11.2966 9.90936 11.1787 9.82319 11.0917C9.73702 11.0047 9.62015 10.9559 9.49829 10.9559H4.22971C4.10785 10.9559 3.99098 11.0047 3.90481 11.0917C3.81864 11.1787 3.77023 11.2966 3.77023 11.4196C3.77023 11.5426 3.81864 11.6606 3.90481 11.7475C3.99098 11.8345 4.10785 11.8833 4.22971 11.8833Z" fill="black"/>
<path d="M11.5568 14.2021H4.22971C4.10785 14.2021 3.99098 14.2509 3.90481 14.3379C3.81864 14.4249 3.77023 14.5428 3.77023 14.6658C3.77023 14.7888 3.81864 14.9068 3.90481 14.9937C3.99098 15.0807 4.10785 15.1296 4.22971 15.1296H11.5568C11.6786 15.1296 11.7955 15.0807 11.8817 14.9937C11.9678 14.9068 12.0162 14.7888 12.0162 14.6658C12.0162 14.5428 11.9678 14.4249 11.8817 14.3379C11.7955 14.2509 11.6786 14.2021 11.5568 14.2021Z" fill="black"/>
<path d="M11.5568 17.4483H4.22971C4.10785 17.4483 3.99098 17.4971 3.90481 17.5841C3.81864 17.6711 3.77023 17.789 3.77023 17.912C3.77023 18.035 3.81864 18.153 3.90481 18.2399C3.99098 18.3269 4.10785 18.3758 4.22971 18.3758H11.5568C11.6786 18.3758 11.7955 18.3269 11.8817 18.2399C11.9678 18.153 12.0162 18.035 12.0162 17.912C12.0162 17.789 11.9678 17.6711 11.8817 17.5841C11.7955 17.4971 11.6786 17.4483 11.5568 17.4483Z" fill="black"/>
<path d="M23.8885 8.07842C23.8276 8.00702 23.7466 7.95611 23.6562 7.9325C23.5659 7.90889 23.4706 7.91372 23.383 7.94634L22.1182 8.4138L23.2069 6.38445C23.2356 6.33086 23.2536 6.27209 23.2598 6.21149C23.266 6.1509 23.2603 6.08966 23.243 6.03129C23.2258 5.97291 23.1973 5.91854 23.1592 5.87127C23.1212 5.824 23.0742 5.78476 23.0211 5.7558C22.968 5.72684 22.9098 5.70871 22.8498 5.70246C22.7897 5.69621 22.7291 5.70196 22.6712 5.71937C22.6134 5.73679 22.5595 5.76553 22.5127 5.80396C22.4658 5.84238 22.427 5.88975 22.3983 5.94334L21.3099 7.97268L21.0062 6.64823C20.9852 6.55651 20.937 6.47342 20.868 6.41003C20.799 6.34663 20.7126 6.30592 20.6201 6.29332C20.5277 6.28072 20.4336 6.29681 20.3504 6.33946C20.2673 6.38212 20.1989 6.44931 20.1545 6.53211L17.7785 10.9614C17.7253 11.0608 17.7099 11.1764 17.7351 11.2864L18.2714 13.6341L15.9924 17.8898C15.9447 17.9967 15.9388 18.1178 15.976 18.2289C16.0132 18.3399 16.0907 18.4326 16.1929 18.4884C16.2951 18.5441 16.4144 18.5586 16.5269 18.5292C16.6393 18.4997 16.7365 18.4283 16.7989 18.3294L19.0801 14.0756L21.3223 13.2468C21.4277 13.2079 21.5153 13.1315 21.5686 13.032L23.9447 8.60226C23.9891 8.5195 24.0075 8.42506 23.9974 8.3315C23.9874 8.23793 23.9494 8.14966 23.8885 8.07842ZM18.6688 11.2482L20.3839 8.05096L20.6486 9.20439L18.9331 12.402L18.6688 11.2482ZM20.843 12.4354L19.7403 12.8435L21.4558 9.6455L22.5585 9.23741L20.843 12.4354Z" stroke="#F2F2F2" stroke-width="2" mask="url(#path-1-outside-1)"/>
<path d="M6.46572 2.84033H13.8655V19.4424C13.8655 19.5654 13.914 19.6833 14.0001 19.7703C14.0863 19.8573 14.2032 19.9061 14.325 19.9061C14.4469 19.9061 14.5638 19.8573 14.6499 19.7703C14.7361 19.6833 14.7845 19.5654 14.7845 19.4424V2.37659C14.7845 2.25359 14.7361 2.13564 14.6499 2.04867C14.5638 1.9617 14.4469 1.91284 14.325 1.91284H6.46572C6.34386 1.91284 6.22699 1.9617 6.14082 2.04867C6.05465 2.13564 6.00624 2.25359 6.00624 2.37659C6.00624 2.49958 6.05465 2.61753 6.14082 2.7045C6.22699 2.79147 6.34386 2.84033 6.46572 2.84033Z" stroke="#F2F2F2" stroke-width="2" mask="url(#path-1-outside-1)"/>
<path d="M17.3576 21.149H4.40027C4.27841 21.149 4.16154 21.1978 4.07537 21.2848C3.9892 21.3718 3.94079 21.4897 3.94079 21.6127V23.1523C3.94008 23.409 3.84334 23.6559 3.66994 23.8436C3.49654 24.0314 3.25928 24.1461 3.00566 24.1648C2.71188 24.1459 2.4362 24.015 2.23446 23.7986C2.03271 23.5823 1.91998 23.2966 1.91908 22.9995V5.62948L4.03269 3.49625V4.97356H3.40265C3.28079 4.97356 3.16392 5.02241 3.07775 5.10938C2.99158 5.19635 2.94317 5.31431 2.94317 5.4373C2.94317 5.56029 2.99158 5.67825 3.07775 5.76522C3.16392 5.85219 3.28079 5.90105 3.40265 5.90105H4.49217C4.61403 5.90105 4.7309 5.85219 4.81707 5.76522C4.90324 5.67825 4.95165 5.56029 4.95165 5.4373V2.37659C4.95124 2.28504 4.92405 2.19566 4.87347 2.11967C4.8229 2.04367 4.7512 1.98446 4.66739 1.94946C4.58358 1.91446 4.49139 1.90523 4.4024 1.92294C4.31342 1.94065 4.2316 1.98451 4.16722 2.049L1.13466 5.10934C1.04853 5.19635 1.00014 5.31431 1.00012 5.4373V22.9995C1.00081 23.521 1.19347 24.0237 1.5407 24.4099C1.88794 24.7962 2.36497 25.0384 2.87921 25.0897C2.89589 25.0942 2.91283 25.0976 2.92994 25.1001H15.7149C16.2722 25.0995 16.8066 24.8758 17.2007 24.478C17.5948 24.0802 17.8165 23.5409 17.8171 22.9783V21.6146C17.8173 21.5535 17.8056 21.493 17.7826 21.4365C17.7596 21.38 17.7258 21.3287 17.6831 21.2854C17.6405 21.2422 17.5897 21.2079 17.5339 21.1844C17.478 21.161 17.4181 21.149 17.3576 21.149ZM16.8981 22.9769C16.8977 23.2935 16.7729 23.597 16.5511 23.8209C16.3293 24.0448 16.0286 24.1707 15.7149 24.1711H4.5734C4.76085 23.865 4.86001 23.5122 4.85975 23.1523V22.0765H16.8981V22.9769Z" stroke="#F2F2F2" stroke-width="2" mask="url(#path-1-outside-1)"/>
<path d="M11.5568 7.70965H4.22971C4.10785 7.70965 3.99098 7.75851 3.90481 7.84548C3.81864 7.93244 3.77023 8.0504 3.77023 8.17339C3.77023 8.29639 3.81864 8.41434 3.90481 8.50131C3.99098 8.58828 4.10785 8.63714 4.22971 8.63714H11.5568C11.6786 8.63714 11.7955 8.58828 11.8817 8.50131C11.9678 8.41434 12.0162 8.29639 12.0162 8.17339C12.0162 8.0504 11.9678 7.93244 11.8817 7.84548C11.7955 7.75851 11.6786 7.70965 11.5568 7.70965Z" stroke="#F2F2F2" stroke-width="2" mask="url(#path-1-outside-1)"/>
<path d="M11.5568 10.9559H11.2443C11.1224 10.9559 11.0056 11.0047 10.9194 11.0917C10.8332 11.1787 10.7848 11.2966 10.7848 11.4196C10.7848 11.5426 10.8332 11.6606 10.9194 11.7475C11.0056 11.8345 11.1224 11.8833 11.2443 11.8833H11.5568C11.6786 11.8833 11.7955 11.8345 11.8817 11.7475C11.9678 11.6606 12.0162 11.5426 12.0162 11.4196C12.0162 11.2966 11.9678 11.1787 11.8817 11.0917C11.7955 11.0047 11.6786 10.9559 11.5568 10.9559Z" stroke="#F2F2F2" stroke-width="2" mask="url(#path-1-outside-1)"/>
<path d="M4.22971 11.8833H9.49829C9.62015 11.8833 9.73702 11.8345 9.82319 11.7475C9.90936 11.6606 9.95777 11.5426 9.95777 11.4196C9.95777 11.2966 9.90936 11.1787 9.82319 11.0917C9.73702 11.0047 9.62015 10.9559 9.49829 10.9559H4.22971C4.10785 10.9559 3.99098 11.0047 3.90481 11.0917C3.81864 11.1787 3.77023 11.2966 3.77023 11.4196C3.77023 11.5426 3.81864 11.6606 3.90481 11.7475C3.99098 11.8345 4.10785 11.8833 4.22971 11.8833Z" stroke="#F2F2F2" stroke-width="2" mask="url(#path-1-outside-1)"/>
<path d="M11.5568 14.2021H4.22971C4.10785 14.2021 3.99098 14.2509 3.90481 14.3379C3.81864 14.4249 3.77023 14.5428 3.77023 14.6658C3.77023 14.7888 3.81864 14.9068 3.90481 14.9937C3.99098 15.0807 4.10785 15.1296 4.22971 15.1296H11.5568C11.6786 15.1296 11.7955 15.0807 11.8817 14.9937C11.9678 14.9068 12.0162 14.7888 12.0162 14.6658C12.0162 14.5428 11.9678 14.4249 11.8817 14.3379C11.7955 14.2509 11.6786 14.2021 11.5568 14.2021Z" stroke="#F2F2F2" stroke-width="2" mask="url(#path-1-outside-1)"/>
<path d="M11.5568 17.4483H4.22971C4.10785 17.4483 3.99098 17.4971 3.90481 17.5841C3.81864 17.6711 3.77023 17.789 3.77023 17.912C3.77023 18.035 3.81864 18.153 3.90481 18.2399C3.99098 18.3269 4.10785 18.3758 4.22971 18.3758H11.5568C11.6786 18.3758 11.7955 18.3269 11.8817 18.2399C11.9678 18.153 12.0162 18.035 12.0162 17.912C12.0162 17.789 11.9678 17.6711 11.8817 17.5841C11.7955 17.4971 11.6786 17.4483 11.5568 17.4483Z" stroke="#F2F2F2" stroke-width="2" mask="url(#path-1-outside-1)"/>
</svg>
