<svg width="16" height="16" viewBox="0 0 16 16" fill="none" xmlns="http://www.w3.org/2000/svg">
<mask id="path-1-inside-1" fill="white">
<path fill-rule="evenodd" clip-rule="evenodd" d="M7.5 14.5266V16H8.5V14.5266C9.9316 14.4185 11.2346 13.8499 12.2613 12.9684L13.142 13.8491L13.8491 13.142L12.9684 12.2613C13.8499 11.2346 14.4185 9.9316 14.5266 8.5H16V7.5H14.5266C14.4124 5.98779 13.7844 4.61904 12.8166 3.56788L13.8491 2.53537L13.142 1.82826L12.0849 2.88535C11.0872 2.08743 9.85081 1.57539 8.5 1.47336V0H7.5V1.47336C6.0684 1.5815 4.76537 2.15014 3.73866 3.03155L2.53537 1.82826L1.82826 2.53537L3.03155 3.73866C2.15014 4.76537 1.5815 6.0684 1.47336 7.5H0V8.5H1.47336C1.57539 9.85081 2.08743 11.0872 2.88535 12.0849L1.8283 13.142L2.5354 13.8491L3.56788 12.8166C4.61904 13.7844 5.98779 14.4124 7.5 14.5266Z"/>
</mask>
<path d="M7.5 16H6.5V17H7.5V16ZM7.5 14.5266H8.5V13.5993L7.57532 13.5295L7.5 14.5266ZM8.5 16V17H9.5V16H8.5ZM8.5 14.5266L8.42468 13.5295L7.5 13.5993V14.5266H8.5ZM12.2613 12.9684L12.9684 12.2613L12.3131 11.606L11.61 12.2097L12.2613 12.9684ZM13.142 13.8491L12.4349 14.5562L13.142 15.2633L13.8491 14.5562L13.142 13.8491ZM13.8491 13.142L14.5562 13.8491L15.2633 13.142L14.5562 12.4349L13.8491 13.142ZM12.9684 12.2613L12.2097 11.61L11.606 12.3131L12.2613 12.9684L12.9684 12.2613ZM14.5266 8.5V7.5H13.5993L13.5295 8.42468L14.5266 8.5ZM16 8.5V9.5H17V8.5H16ZM16 7.5H17V6.5H16V7.5ZM14.5266 7.5L13.5295 7.57532L13.5993 8.5H14.5266V7.5ZM12.8166 3.56788L12.1095 2.86077L11.431 3.53927L12.0809 4.24519L12.8166 3.56788ZM13.8491 2.53537L14.5562 3.24248L15.2633 2.53537L14.5562 1.82826L13.8491 2.53537ZM13.142 1.82826L13.8491 1.12116L13.142 0.414051L12.4349 1.12116L13.142 1.82826ZM12.0849 2.88535L11.4604 3.66633L12.1592 4.22524L12.792 3.59246L12.0849 2.88535ZM8.5 1.47336H7.5V2.40067L8.42468 2.47052L8.5 1.47336ZM8.5 0H9.5V-1H8.5V0ZM7.5 0V-1H6.5V0H7.5ZM7.5 1.47336L7.57532 2.47052L8.5 2.40067V1.47336H7.5ZM3.73866 3.03155L3.03155 3.73866L3.68686 4.39397L4.39003 3.79031L3.73866 3.03155ZM2.53537 1.82826L3.24248 1.12116L2.53537 0.414051L1.82826 1.12116L2.53537 1.82826ZM1.82826 2.53537L1.12116 1.82827L0.414051 2.53537L1.12116 3.24248L1.82826 2.53537ZM3.03155 3.73866L3.79031 4.39003L4.39397 3.68686L3.73866 3.03155L3.03155 3.73866ZM1.47336 7.5V8.5H2.40067L2.47052 7.57532L1.47336 7.5ZM0 7.5V6.5H-1V7.5H0ZM0 8.5H-1V9.5H0V8.5ZM1.47336 8.5L2.47052 8.42468L2.40067 7.5H1.47336V8.5ZM2.88535 12.0849L3.59246 12.792L4.22524 12.1592L3.66633 11.4604L2.88535 12.0849ZM1.8283 13.142L1.12119 12.4349L0.414085 13.142L1.12119 13.8491L1.8283 13.142ZM2.5354 13.8491L1.8283 14.5562L2.5354 15.2633L3.24251 14.5562L2.5354 13.8491ZM3.56788 12.8166L4.24519 12.0809L3.53927 11.431L2.86077 12.1095L3.56788 12.8166ZM8.5 16V14.5266H6.5V16H8.5ZM8.5 15H7.5V17H8.5V15ZM7.5 14.5266V16H9.5V14.5266H7.5ZM11.61 12.2097C10.7394 12.9571 9.63654 13.4379 8.42468 13.5295L8.57532 15.5238C10.2267 15.3991 11.7299 14.7426 12.9127 13.7272L11.61 12.2097ZM13.8491 13.142L12.9684 12.2613L11.5542 13.6756L12.4349 14.5562L13.8491 13.142ZM13.142 12.4349L12.4349 13.142L13.8491 14.5562L14.5562 13.8491L13.142 12.4349ZM12.2613 12.9684L13.142 13.8491L14.5562 12.4349L13.6756 11.5542L12.2613 12.9684ZM13.5295 8.42468C13.4379 9.63654 12.9571 10.7394 12.2097 11.61L13.7272 12.9127C14.7426 11.7299 15.3991 10.2267 15.5238 8.57532L13.5295 8.42468ZM16 7.5H14.5266V9.5H16V7.5ZM15 7.5V8.5H17V7.5H15ZM14.5266 8.5H16V6.5H14.5266V8.5ZM12.0809 4.24519C12.9017 5.13674 13.4328 6.29538 13.5295 7.57532L15.5238 7.42468C15.392 5.68021 14.667 4.10133 13.5523 2.89056L12.0809 4.24519ZM13.142 1.82826L12.1095 2.86077L13.5237 4.27498L14.5562 3.24248L13.142 1.82826ZM12.4349 2.53537L13.142 3.24248L14.5562 1.82826L13.8491 1.12116L12.4349 2.53537ZM12.792 3.59246L13.8491 2.53537L12.4349 1.12116L11.3778 2.17825L12.792 3.59246ZM8.42468 2.47052C9.5683 2.5569 10.6146 2.98994 11.4604 3.66633L12.7095 2.10438C11.5598 1.18493 10.1333 0.593884 8.57532 0.476199L8.42468 2.47052ZM7.5 0V1.47336H9.5V0H7.5ZM7.5 1H8.5V-1H7.5V1ZM8.5 1.47336V0H6.5V1.47336H8.5ZM4.39003 3.79031C5.26062 3.04293 6.36346 2.56206 7.57532 2.47052L7.42468 0.476199C5.77334 0.600934 4.27012 1.25736 3.08728 2.2728L4.39003 3.79031ZM1.82826 2.53537L3.03155 3.73866L4.44577 2.32445L3.24248 1.12116L1.82826 2.53537ZM2.53537 3.24248L3.24248 2.53537L1.82826 1.12116L1.12116 1.82827L2.53537 3.24248ZM3.73866 3.03155L2.53537 1.82826L1.12116 3.24248L2.32445 4.44577L3.73866 3.03155ZM2.47052 7.57532C2.56206 6.36346 3.04293 5.26062 3.79031 4.39003L2.2728 3.08728C1.25736 4.27012 0.600935 5.77334 0.476199 7.42468L2.47052 7.57532ZM0 8.5H1.47336V6.5H0V8.5ZM1 8.5V7.5H-1V8.5H1ZM1.47336 7.5H0V9.5H1.47336V7.5ZM3.66633 11.4604C2.98994 10.6146 2.5569 9.5683 2.47052 8.42468L0.476198 8.57532C0.593884 10.1333 1.18492 11.5598 2.10438 12.7095L3.66633 11.4604ZM2.5354 13.8491L3.59246 12.792L2.17825 11.3778L1.12119 12.4349L2.5354 13.8491ZM3.24251 13.142L2.5354 12.4349L1.12119 13.8491L1.8283 14.5562L3.24251 13.142ZM2.86077 12.1095L1.8283 13.142L3.24251 14.5562L4.27498 13.5237L2.86077 12.1095ZM7.57532 13.5295C6.29538 13.4328 5.13674 12.9017 4.24519 12.0809L2.89056 13.5523C4.10133 14.667 5.6802 15.392 7.42468 15.5238L7.57532 13.5295Z" fill="black" mask="url(#path-1-inside-1)"/>
</svg>
