<svg xmlns="http://www.w3.org/2000/svg" viewBox="0 0 15.21401 15.78961"><g id="Слой_2" data-name="Слой 2"><g id="Слой_1-2" data-name="Слой 1"><path class="cls-1" d="M14.97,12.32943l-.27454-.28494a.81214.81214,0,0,0-.98805-.14928l-1.165-1.209.3583-.37173a.893.893,0,0,0,0-1.22813l-.27112-.28143a.81523.81523,0,0,0-1.18337,0l-.24717.2565-.91182-1.02048,4.8287-4.5512a.31386.31386,0,0,0,.09728-.23442L15.15736.36005a.30277.30277,0,0,0-.29114-.30213L12.07668.0001a.2888.2888,0,0,0-.22595.101L7.60566,4.95267,3.36322.10117a.29248.29248,0,0,0-.226-.10107L.34764.05792A.30286.30286,0,0,0,.05648.36005L.00075,3.25532a.31364.31364,0,0,0,.09741.23442l4.8172,4.5377L4.01264,9.059l-.24646-.25572a.8131.8131,0,0,0-1.18019,0L2.31155,9.088a.89027.89027,0,0,0,0,1.22454l.36.37357-1.165,1.20909a.8123.8123,0,0,0-.98816.14928L.244,12.32925a.89027.89027,0,0,0,0,1.22454l1.90981,1.98212a.81312.81312,0,0,0,1.18019,0l.27455-.28485A.892.892,0,0,0,3.7519,14.2259L4.917,13.01664l.35976.37348a.81312.81312,0,0,0,1.18019,0l.27456-.28494a.8904.8904,0,0,0,0-1.22445l-.2467-.25607,1.10775-1.04411L8.72676,11.627l-.24252.25177a.89306.89306,0,0,0,0,1.22822l.27109.28135a.81518.81518,0,0,0,1.18346,0l.35813-.37173L11.462,14.2259a.89209.89209,0,0,0,.14347,1.02525l.27437.28476a.81323.81323,0,0,0,1.18029,0l1.9098-1.98212A.88982.88982,0,0,0,14.97,12.32943Zm-4.19159-2.8316-.60306.626L9.17685,9.0874l.6704-.63182ZM.5977,3.12738.64506.66868,3.01391.61953,7.20422,5.41141,6.4574,6.265,2.97652,2.65239a.2895.2895,0,0,0-.42024,0,.31653.31653,0,0,0,0,.43608L6.05735,6.7222l-.7424.84855ZM12.2.61953l2.369.04915.04739,2.4587-8.55223,8.0607L5.4589,10.56l7.19885-7.47155a.317.317,0,0,0,0-.4362.28978.28978,0,0,0-.4204.00012l-7.19881,7.4714-.60519-.62815ZM3.18815,14.81492l-.27443.28494a.23392.23392,0,0,1-.33957,0L.66433,13.11773a.25631.25631,0,0,1,0-.35242l.27444-.28477a.23392.23392,0,0,1,.33957,0l.042.04353.00023.00026L3.14578,14.4187l.00035.00027.042.0437a.2561.2561,0,0,1,0,.35225Zm.16776-1.05043L1.951,12.30635l1.14083-1.184,1.40494,1.45823Zm2.95522-1.09536-.27444.28485a.23392.23392,0,0,1-.33957,0L2.73181,9.87649a.2561.2561,0,0,1,0-.35225l.27455-.28494a.23391.23391,0,0,1,.33956,0l2.96521,3.07758A.25612.25612,0,0,1,6.31113,12.66913Zm1.724-2.50559.70118-.661L9.75511,10.56l-.60726.63026Zm1.48339,2.78877a.23613.23613,0,0,1-.34281,0l-.271-.28125a.25874.25874,0,0,1,0-.356L11.86647,9.241a.23615.23615,0,0,1,.34281,0l.271.28134a.25864.25864,0,0,1,0,.35594Zm2.60372-1.83,1.14085,1.184-1.405,1.45814-1.14076-1.18391Zm2.42749,1.99538-1.90981,1.98213a.23391.23391,0,0,1-.33956,0l-.27445-.28477a.25642.25642,0,0,1-.00017-.35242l.04218-.04353.00025-.00044,1.86746-1.93816a.234.234,0,0,1,.33964,0l.27428.28494a.25588.25588,0,0,1,.00018.35225Z"/></g></g></svg>